<?xml version="1.0" standalone="no"?>
<!DOCTYPE svg PUBLIC "-//W3C//DTD SVG 20010904//EN"
 "http://www.w3.org/TR/2001/REC-SVG-20010904/DTD/svg10.dtd">
<svg version="1.0" xmlns="http://www.w3.org/2000/svg"
 width="512.000000pt" height="512.000000pt" viewBox="0 0 512.000000 512.000000"
 preserveAspectRatio="xMidYMid meet">

<g transform="translate(0.000000,512.000000) scale(0.100000,-0.100000)"
fill="#ff1c0b" stroke="none">
<path d="M1565 5114 c-11 -2 -45 -9 -75 -15 -215 -44 -429 -225 -520 -439 -94
-222 -72 -486 57 -687 l34 -53 -319 0 c-176 0 -343 -5 -373 -10 -180 -34 -325
-179 -359 -359 -14 -72 -13 -407 1 -473 27 -125 115 -243 224 -299 l65 -34 0
-1161 c0 -748 4 -1180 10 -1215 34 -180 179 -325 359 -359 74 -14 3708 -14
3782 0 180 34 325 179 359 359 6 35 10 467 10 1215 l0 1161 65 34 c109 56 197
174 224 299 14 66 15 401 1 473 -34 180 -179 325 -359 359 -30 5 -197 10 -373
10 l-319 0 34 53 c129 201 151 465 57 687 -91 214 -290 383 -520 441 -81 20
-288 18 -370 -5 -120 -32 -208 -83 -296 -171 -130 -129 -210 -271 -340 -597
-33 -81 -61 -148 -64 -148 -3 0 -31 67 -64 148 -130 326 -210 468 -340 597
-87 87 -176 139 -291 170 -58 16 -259 29 -300 19z m263 -322 c151 -58 233
-186 433 -679 l78 -193 -353 0 c-199 0 -377 4 -407 10 -186 35 -330 184 -361
374 -38 227 124 457 353 506 68 14 196 5 257 -18z m1713 18 c186 -35 330 -184
361 -374 38 -231 -126 -461 -361 -506 -30 -6 -208 -10 -407 -10 l-353 0 78
193 c164 404 242 548 340 625 90 71 211 97 342 72z m-1581 -1490 l0 -300 -770
0 c-753 0 -772 0 -810 20 -70 36 -80 70 -80 280 0 208 10 244 78 279 36 20 60
20 810 21 l772 0 0 -300z m900 -1360 l0 -1660 -300 0 -300 0 0 1660 0 1660
300 0 300 0 0 -1660z m1880 1640 c70 -36 80 -70 80 -280 0 -210 -10 -244 -80
-280 -38 -20 -57 -20 -810 -20 l-770 0 0 300 0 300 770 0 c753 0 772 0 810
-20z m-2780 -2090 l0 -1210 -620 0 c-602 0 -622 1 -660 20 -26 13 -47 34 -60
60 -20 39 -20 56 -20 1190 l0 1150 680 0 680 0 0 -1210z m2560 60 c0 -1134 0
-1151 -20 -1190 -13 -26 -34 -47 -60 -60 -38 -19 -58 -20 -660 -20 l-620 0 0
1210 0 1210 680 0 680 0 0 -1150z"/>
</g>
</svg>
